# Blender v2.81 (sub 16) OBJ File: 'stage1.blend'
# www.blender.org
mtllib stage1.mtl
o Cube
v -5.511177 11.664960 -7.123495
v -5.511177 7.504960 -7.123495
v -5.511177 11.664960 6.196506
v -5.511177 7.504960 6.196506
v -5.751177 11.664960 -7.123495
v -5.751177 7.504960 -7.123495
v -5.751177 11.664960 6.196506
v -5.751177 7.504960 6.196506
vt 0.625000 0.500000
vt 0.875000 0.500000
vt 0.875000 0.750000
vt 0.625000 0.750000
vt 0.375000 0.750000
vt 0.625000 1.000000
vt 0.375000 1.000000
vt 0.375000 0.000000
vt 0.625000 0.000000
vt 0.625000 0.250000
vt 0.375000 0.250000
vt 0.125000 0.500000
vt 0.375000 0.500000
vt 0.125000 0.750000
vn 0.0000 1.0000 0.0000
vn 0.0000 0.0000 1.0000
vn -1.0000 0.0000 0.0000
vn 0.0000 -1.0000 0.0000
vn 1.0000 0.0000 0.0000
vn 0.0000 0.0000 -1.0000
usemtl Material.003
s off
f 1/1/1 5/2/1 7/3/1 3/4/1
f 4/5/2 3/4/2 7/6/2 8/7/2
f 8/8/3 7/9/3 5/10/3 6/11/3
f 6/12/4 2/13/4 4/5/4 8/14/4
f 2/13/5 1/1/5 3/4/5 4/5/5
f 6/11/6 5/10/6 1/1/6 2/13/6
o Cube.001
v 13.968822 4.044961 -2.823495
v 13.968822 2.384960 -2.823495
v 13.968822 4.044961 1.896506
v 13.968822 2.384960 1.896506
v 1.562679 2.515729 -2.573013
v 1.448822 2.384960 -2.823495
v 1.476067 2.628348 2.114184
v 1.448822 2.384960 1.896506
vt 0.625000 0.500000
vt 0.875000 0.500000
vt 0.875000 0.750000
vt 0.625000 0.750000
vt 0.375000 0.750000
vt 0.625000 1.000000
vt 0.375000 1.000000
vt 0.375000 0.000000
vt 0.625000 0.000000
vt 0.625000 0.250000
vt 0.375000 0.250000
vt 0.125000 0.500000
vt 0.375000 0.500000
vt 0.125000 0.750000
vn -0.1177 0.9930 -0.0130
vn 0.0151 -0.1138 0.9934
vn -0.9301 0.3670 -0.0130
vn 0.0000 -1.0000 0.0000
vn 1.0000 0.0000 0.0000
vn -0.0185 0.1397 -0.9900
usemtl Material.001
s off
f 9/15/7 13/16/7 15/17/7 11/18/7
f 12/19/8 11/18/8 15/20/8 16/21/8
f 16/22/9 15/23/9 13/24/9 14/25/9
f 14/26/10 10/27/10 12/19/10 16/28/10
f 10/27/11 9/15/11 11/18/11 12/19/11
f 14/25/12 13/24/12 9/15/12 10/27/12
o Cube.002
v -3.906112 5.464961 -3.139030
v -3.906112 5.864961 -3.139030
v -4.405787 5.464961 -5.158121
v -4.405787 5.864961 -5.158121
v -2.896567 5.464961 -3.388868
v -2.896567 5.864961 -3.388868
v -3.396241 5.464961 -5.407958
v -3.396241 5.864961 -5.407958
vt 0.375000 0.000000
vt 0.625000 0.000000
vt 0.625000 0.250000
vt 0.375000 0.250000
vt 0.625000 0.500000
vt 0.375000 0.500000
vt 0.625000 0.750000
vt 0.375000 0.750000
vt 0.625000 1.000000
vt 0.375000 1.000000
vt 0.125000 0.500000
vt 0.125000 0.750000
vt 0.875000 0.500000
vt 0.875000 0.750000
vn -0.9707 0.0000 0.2402
vn -0.2402 0.0000 -0.9707
vn 0.9707 0.0000 -0.2402
vn 0.2402 0.0000 0.9707
vn 0.0000 -1.0000 0.0000
vn 0.0000 1.0000 0.0000
usemtl Material.002
s off
f 17/29/13 18/30/13 20/31/13 19/32/13
f 19/32/14 20/31/14 24/33/14 23/34/14
f 23/34/15 24/33/15 22/35/15 21/36/15
f 21/36/16 22/35/16 18/37/16 17/38/16
f 19/39/17 23/34/17 21/36/17 17/40/17
f 24/33/18 20/41/18 18/42/18 22/35/18
o Cube.003
v -2.401177 3.704961 0.576505
v -2.401177 4.104960 0.576505
v -2.401177 3.704961 -1.503495
v -2.401177 4.104960 -1.503495
v -1.361177 3.704961 0.576505
v -1.361177 4.104960 0.576505
v -1.361177 3.704961 -1.503495
v -1.361177 4.104960 -1.503495
vt 0.375000 0.000000
vt 0.625000 0.000000
vt 0.625000 0.250000
vt 0.375000 0.250000
vt 0.625000 0.500000
vt 0.375000 0.500000
vt 0.625000 0.750000
vt 0.375000 0.750000
vt 0.625000 1.000000
vt 0.375000 1.000000
vt 0.125000 0.500000
vt 0.125000 0.750000
vt 0.875000 0.500000
vt 0.875000 0.750000
vn -1.0000 0.0000 0.0000
vn 0.0000 0.0000 -1.0000
vn 1.0000 0.0000 0.0000
vn 0.0000 0.0000 1.0000
vn 0.0000 -1.0000 0.0000
vn 0.0000 1.0000 0.0000
usemtl Material.002
s off
f 25/43/19 26/44/19 28/45/19 27/46/19
f 27/46/20 28/45/20 32/47/20 31/48/20
f 31/48/21 32/47/21 30/49/21 29/50/21
f 29/50/22 30/49/22 26/51/22 25/52/22
f 27/53/23 31/48/23 29/50/23 25/54/23
f 32/47/24 28/55/24 26/56/24 30/49/24
o Cube.004
v -0.400083 4.304960 -0.437907
v -0.400083 4.704961 -0.437907
v -1.118303 4.304960 -2.389972
v -1.118303 4.704961 -2.389972
v 0.575950 4.304960 -0.797017
v 0.575950 4.704961 -0.797017
v -0.142271 4.304960 -2.749082
v -0.142271 4.704961 -2.749082
vt 0.375000 0.000000
vt 0.625000 0.000000
vt 0.625000 0.250000
vt 0.375000 0.250000
vt 0.625000 0.500000
vt 0.375000 0.500000
vt 0.625000 0.750000
vt 0.375000 0.750000
vt 0.625000 1.000000
vt 0.375000 1.000000
vt 0.125000 0.500000
vt 0.125000 0.750000
vt 0.875000 0.500000
vt 0.875000 0.750000
vn -0.9385 0.0000 0.3453
vn -0.3453 0.0000 -0.9385
vn 0.9385 0.0000 -0.3453
vn 0.3453 0.0000 0.9385
vn 0.0000 -1.0000 -0.0000
vn 0.0000 1.0000 0.0000
usemtl Material.002
s off
f 33/57/25 34/58/25 36/59/25 35/60/25
f 35/60/26 36/59/26 40/61/26 39/62/26
f 39/62/27 40/61/27 38/63/27 37/64/27
f 37/64/28 38/63/28 34/65/28 33/66/28
f 35/67/29 39/62/29 37/64/29 33/68/29
f 40/61/30 36/69/30 34/70/30 38/63/30
o Cube.005
v -2.462967 4.654961 -3.777776
v -2.462967 5.054960 -3.777776
v -1.176678 4.654961 -5.412358
v -1.176678 5.054960 -5.412358
v -1.645676 4.654961 -3.134631
v -1.645676 5.054960 -3.134631
v -0.359386 4.654961 -4.769213
v -0.359386 5.054960 -4.769213
vt 0.375000 0.000000
vt 0.625000 0.000000
vt 0.625000 0.250000
vt 0.375000 0.250000
vt 0.625000 0.500000
vt 0.375000 0.500000
vt 0.625000 0.750000
vt 0.375000 0.750000
vt 0.625000 1.000000
vt 0.375000 1.000000
vt 0.125000 0.500000
vt 0.125000 0.750000
vt 0.875000 0.500000
vt 0.875000 0.750000
vn -0.7859 0.0000 -0.6184
vn 0.6184 0.0000 -0.7859
vn 0.7859 0.0000 0.6184
vn -0.6184 0.0000 0.7859
vn 0.0000 -1.0000 0.0000
vn 0.0000 1.0000 0.0000
usemtl Material.002
s off
f 41/71/31 42/72/31 44/73/31 43/74/31
f 43/74/32 44/73/32 48/75/32 47/76/32
f 47/76/33 48/75/33 46/77/33 45/78/33
f 45/78/34 46/77/34 42/79/34 41/80/34
f 43/81/35 47/76/35 45/78/35 41/82/35
f 48/75/36 44/83/36 42/84/36 46/77/36
o Cube.006
v -5.431176 5.534961 -7.123495
v -5.431176 5.854960 -7.123495
v -5.431176 5.534961 6.196506
v -5.431176 5.854960 6.196506
v -7.871177 5.534961 -7.123495
v -7.871177 5.854960 -7.123495
v -7.871177 5.534961 6.196506
v -7.871177 5.854960 6.196506
vt 0.625000 0.500000
vt 0.625000 0.750000
vt 0.875000 0.750000
vt 0.875000 0.500000
vt 0.375000 0.750000
vt 0.375000 1.000000
vt 0.625000 1.000000
vt 0.375000 0.000000
vt 0.375000 0.250000
vt 0.625000 0.250000
vt 0.625000 0.000000
vt 0.125000 0.500000
vt 0.125000 0.750000
vt 0.375000 0.500000
vn 0.0000 -1.0000 0.0000
vn 0.0000 0.0000 1.0000
vn -1.0000 0.0000 0.0000
vn 0.0000 1.0000 0.0000
vn 1.0000 0.0000 0.0000
vn 0.0000 0.0000 -1.0000
usemtl Material.003
s off
f 49/85/37 51/86/37 55/87/37 53/88/37
f 52/89/38 56/90/38 55/91/38 51/86/38
f 56/92/39 54/93/39 53/94/39 55/95/39
f 54/96/40 56/97/40 52/89/40 50/98/40
f 50/98/41 52/89/41 51/86/41 49/85/41
f 54/93/42 50/98/42 49/85/42 53/94/42
o Cube.007
v -2.951177 4.044961 -7.123495
v -2.951177 2.384960 -7.123495
v -2.951177 4.044961 6.196506
v -2.951177 2.384960 6.196506
v -7.031177 4.044961 -7.123495
v -7.031177 2.384960 -7.123495
v -7.031177 4.044961 6.196506
v -7.031177 2.384960 6.196506
vt 0.625000 0.500000
vt 0.875000 0.500000
vt 0.875000 0.750000
vt 0.625000 0.750000
vt 0.375000 0.750000
vt 0.625000 1.000000
vt 0.375000 1.000000
vt 0.375000 0.000000
vt 0.625000 0.000000
vt 0.625000 0.250000
vt 0.375000 0.250000
vt 0.125000 0.500000
vt 0.375000 0.500000
vt 0.125000 0.750000
vn 0.0000 1.0000 0.0000
vn 0.0000 0.0000 1.0000
vn -1.0000 0.0000 0.0000
vn 0.0000 -1.0000 0.0000
vn 1.0000 0.0000 0.0000
vn 0.0000 0.0000 -1.0000
usemtl Material.003
s off
f 57/99/43 61/100/43 63/101/43 59/102/43
f 60/103/44 59/102/44 63/104/44 64/105/44
f 64/106/45 63/107/45 61/108/45 62/109/45
f 62/110/46 58/111/46 60/103/46 64/112/46
f 58/111/47 57/99/47 59/102/47 60/103/47
f 62/109/48 61/108/48 57/99/48 58/111/48
o Cube.008
v -7.031177 11.024961 -7.123495
v -7.031177 2.364961 -7.123495
v -7.031177 11.024961 6.196506
v -7.031177 2.364961 6.196506
v -9.211177 11.024961 -7.123495
v -9.211177 2.364961 -7.123495
v -9.211177 11.024961 6.196506
v -9.211177 2.364961 6.196506
vt 0.625000 0.500000
vt 0.875000 0.500000
vt 0.875000 0.750000
vt 0.625000 0.750000
vt 0.375000 0.750000
vt 0.625000 1.000000
vt 0.375000 1.000000
vt 0.375000 0.000000
vt 0.625000 0.000000
vt 0.625000 0.250000
vt 0.375000 0.250000
vt 0.125000 0.500000
vt 0.375000 0.500000
vt 0.125000 0.750000
vn 0.0000 1.0000 0.0000
vn 0.0000 0.0000 1.0000
vn -1.0000 0.0000 0.0000
vn 0.0000 -1.0000 0.0000
vn 1.0000 0.0000 0.0000
vn 0.0000 0.0000 -1.0000
usemtl Material.003
s off
f 65/113/49 69/114/49 71/115/49 67/116/49
f 68/117/50 67/116/50 71/118/50 72/119/50
f 72/120/51 71/121/51 69/122/51 70/123/51
f 70/124/52 66/125/52 68/117/52 72/126/52
f 66/125/53 65/113/53 67/116/53 68/117/53
f 70/123/54 69/122/54 65/113/54 66/125/54
